<svg width="196" height="196" viewBox="0 0 196 196" fill="none" xmlns="http://www.w3.org/2000/svg">
<path d="M15.4875 7.67403e-06C11.3844 7.67403e-06 7.44942 1.62997 4.54808 4.53131C1.64673 7.43266 0.0167723 11.3677 0.0167723 15.4707C0.0167723 19.5739 1.64673 23.5089 4.54808 26.4102C7.44942 29.3116 11.3844 30.9415 15.4875 30.9415H136.778C137.288 30.9426 137.786 31.0949 138.209 31.3788C138.632 31.6629 138.962 32.066 139.157 32.5373C139.351 33.0087 139.401 33.527 139.3 34.0268C139.2 34.5266 138.954 34.9855 138.594 35.3454L4.5239 169.56C1.62441 172.463 -0.00293602 176.399 3.97668e-06 180.503C0.00294398 184.606 1.63573 188.54 4.53936 191.44C7.44299 194.339 11.3795 195.967 15.483 195.964C19.5864 195.961 23.5207 194.329 26.4202 191.424L160.655 57.0458C161.015 56.6843 161.475 56.438 161.975 56.338C162.476 56.2382 162.996 56.2892 163.467 56.4848C163.939 56.6804 164.342 57.0115 164.626 57.4364C164.909 57.8613 165.059 58.3606 165.058 58.8713V180.492C165.058 184.595 166.688 188.53 169.59 191.431C172.491 194.333 176.426 195.963 180.529 195.963C184.632 195.963 188.567 194.333 191.469 191.431C194.37 188.53 196 184.595 196 180.492V25.7846C196 22.3968 195.333 19.0422 194.036 15.9125C192.738 12.7828 190.838 9.93949 188.441 7.54492C186.044 5.15023 183.199 3.25143 180.068 1.95685C176.938 0.662269 173.583 -0.00260566 170.194 7.67403e-06H15.4875Z" fill="#6C6C6C"/>
</svg>
