<svg width="22" height="22" viewBox="0 0 22 22" fill="none" xmlns="http://www.w3.org/2000/svg">
<g clip-path="url(#clip0_24_47)">
<path fill-rule="evenodd" clip-rule="evenodd" d="M11 0C4.92733 0 0 4.92733 0 11C0 17.0727 4.92733 22 11 22C17.0607 22 22 17.0727 22 11C22 4.92733 17.0607 0 11 0ZM18.2657 5.0705C19.5781 6.6692 20.3656 8.70931 20.3894 10.9165C20.0792 10.8568 16.9772 10.2245 13.8514 10.6182C13.7798 10.4631 13.7202 10.2961 13.6486 10.1291C13.4577 9.67578 13.243 9.21039 13.0282 8.76899C16.488 7.3612 18.0629 5.33297 18.2657 5.0705ZM11 1.62256C13.3861 1.62256 15.5694 2.51736 17.2277 3.98482C17.0607 4.22343 15.641 6.12039 12.3004 7.37309C10.7614 4.54555 9.05534 2.23102 8.79285 1.8731C9.49676 1.70607 10.2365 1.62256 11 1.62256ZM7.00329 2.50542C7.25381 2.83948 8.9241 5.16595 10.487 7.93382C6.09653 9.10305 2.21909 9.0792 1.80152 9.0792C2.40997 6.16811 4.37852 3.7462 7.00329 2.50542ZM1.5987 11.012C1.5987 10.9165 1.5987 10.8211 1.5987 10.7256C2.00434 10.7375 6.56182 10.7971 11.2505 9.38942C11.525 9.9143 11.7755 10.4512 12.0141 10.9881C11.8948 11.0238 11.7635 11.0597 11.6442 11.0954C6.80043 12.6583 4.22343 16.9295 4.00868 17.2874C2.51735 15.6291 1.5987 13.4219 1.5987 11.012ZM11 20.4013C8.8286 20.4013 6.8243 19.6616 5.23752 18.4208C5.40456 18.0748 7.31341 14.4003 12.6106 12.551C12.6344 12.5391 12.6464 12.5391 12.6703 12.5272C13.9946 15.9512 14.5315 18.8264 14.6746 19.6497C13.5412 20.1388 12.3004 20.4013 11 20.4013ZM16.2376 18.7907C16.1421 18.218 15.641 15.474 14.4121 12.0976C17.359 11.6323 19.936 12.3959 20.2582 12.5032C19.8525 15.116 18.3493 17.3709 16.2376 18.7907Z" fill="#A8A8A8"/>
</g>
<defs>
<clipPath id="clip0_24_47">
<rect width="22" height="22" fill="white"/>
</clipPath>
</defs>
</svg>
