<svg width="22" height="22" viewBox="0 0 22 22" fill="none" xmlns="http://www.w3.org/2000/svg">
<g clip-path="url(#clip0_24_50)">
<mask id="mask0_24_50" style="mask-type:luminance" maskUnits="userSpaceOnUse" x="0" y="0" width="22" height="22">
<path d="M22 0H0V22H22V0Z" fill="white"/>
</mask>
<g mask="url(#mask0_24_50)">
<path fill-rule="evenodd" clip-rule="evenodd" d="M11 0.458252C8.38863 0.459607 5.86289 1.38451 3.8744 3.06756C1.88591 4.75063 0.564344 7.08209 0.146015 9.64509C-0.272313 12.2081 0.239866 14.8354 1.59098 17.0574C2.94209 19.2793 5.04404 20.9511 7.52095 21.7735C8.0674 21.8749 8.27323 21.5362 8.27323 21.2483C8.27323 20.9602 8.2623 20.1253 8.25865 19.2125C5.19854 19.8736 4.55192 17.9212 4.55192 17.9212C4.05283 16.6534 3.33151 16.3202 3.33151 16.3202C2.33334 15.6428 3.4062 15.6555 3.4062 15.6555C4.51185 15.7333 5.09291 16.7838 5.09291 16.7838C6.07287 18.4554 7.66667 17.9719 8.29326 17.6894C8.39162 16.9813 8.6776 16.4995 8.99272 16.226C6.54828 15.9507 3.97997 15.0125 3.97997 10.8215C3.96482 9.73464 4.37045 8.68355 5.11294 7.88571C5.00001 7.61042 4.62296 6.49838 5.2204 4.9879C5.2204 4.9879 6.14391 4.69449 8.24592 6.10899C10.0488 5.61874 11.9511 5.61874 13.7541 6.10899C15.8543 4.69449 16.776 4.9879 16.776 4.9879C17.3752 6.49476 16.9982 7.60679 16.8852 7.88571C17.6301 8.68368 18.0366 9.73657 18.0201 10.8252C18.0201 15.0252 15.4463 15.9507 12.9982 16.2205C13.3916 16.5611 13.7432 17.2257 13.7432 18.2472C13.7432 19.7106 13.7304 20.8878 13.7304 21.2483C13.7304 21.5398 13.929 21.8803 14.4863 21.7735C16.9635 20.951 19.0657 19.279 20.4168 17.0566C21.7679 14.8343 22.2798 12.2065 21.861 9.64334C21.4422 7.08007 20.12 4.74857 18.1308 3.06581C16.1416 1.38304 13.6153 0.458748 11.0036 0.458252H11Z" fill="#A8A8A8"/>
<path d="M4.16593 16.1626C4.14225 16.2169 4.05482 16.2333 3.98378 16.1952C3.91274 16.1572 3.85992 16.0865 3.88542 16.0304C3.91092 15.9742 3.99653 15.9597 4.06757 15.9978C4.13861 16.0358 4.19325 16.1082 4.16593 16.1626Z" fill="#A8A8A8"/>
<path d="M4.61229 16.657C4.57457 16.6759 4.53141 16.6812 4.4902 16.6719C4.449 16.6627 4.41232 16.6395 4.38642 16.6063C4.31539 16.5302 4.3008 16.4252 4.35545 16.378C4.4101 16.3309 4.50846 16.3527 4.5795 16.4287C4.65054 16.5048 4.66693 16.6099 4.61229 16.657Z" fill="#A8A8A8"/>
<path d="M5.0458 17.2856C4.9784 17.3327 4.86364 17.2856 4.79988 17.1914C4.78226 17.1745 4.76824 17.1542 4.75866 17.1319C4.74908 17.1094 4.74414 17.0853 4.74414 17.061C4.74414 17.0366 4.74908 17.0125 4.75866 16.9902C4.76824 16.9678 4.78226 16.9475 4.79988 16.9306C4.86729 16.8853 4.98204 16.9306 5.0458 17.023C5.10954 17.1154 5.11137 17.2385 5.0458 17.2856Z" fill="#A8A8A8"/>
<path d="M5.63463 17.894C5.57452 17.961 5.45248 17.943 5.3523 17.8524C5.25212 17.7618 5.22843 17.6387 5.28855 17.5735C5.34865 17.5083 5.47069 17.5264 5.57452 17.6152C5.67834 17.7039 5.69838 17.8288 5.63463 17.894Z" fill="#A8A8A8"/>
<path d="M6.45932 18.2491C6.432 18.3343 6.30813 18.3722 6.18427 18.336C6.06041 18.2998 5.97844 18.1984 6.00212 18.1114C6.02581 18.0245 6.15149 17.9847 6.27718 18.0245C6.40285 18.0644 6.48301 18.1604 6.45932 18.2491Z" fill="#A8A8A8"/>
<path d="M7.35848 18.3106C7.35848 18.3993 7.25648 18.4754 7.12534 18.4771C6.99419 18.479 6.88672 18.4065 6.88672 18.3178C6.88672 18.2291 6.98872 18.153 7.11986 18.1512C7.25102 18.1493 7.35848 18.22 7.35848 18.3106Z" fill="#A8A8A8"/>
<path d="M8.19654 18.1711C8.21293 18.2599 8.12185 18.3523 7.9907 18.374C7.85956 18.3957 7.74481 18.3432 7.72841 18.2563C7.71202 18.1694 7.80674 18.0752 7.93425 18.0516C8.06175 18.0281 8.18014 18.0824 8.19654 18.1711Z" fill="#A8A8A8"/>
</g>
</g>
<defs>
<clipPath id="clip0_24_50">
<rect width="22" height="22" fill="white"/>
</clipPath>
</defs>
</svg>
