<svg width="20" height="20" viewBox="0 0 20 20" fill="none" xmlns="http://www.w3.org/2000/svg">
<g clip-path="url(#clip0_57_5)">
<path d="M17.0394 15.5626C17.0393 16.3804 16.3763 17.0433 15.5585 17.0433V17.0433C14.7405 17.0433 14.0775 16.3803 14.0775 15.5624V12.4025C14.0775 11.2958 14.055 9.87167 12.5342 9.87167C10.99 9.87167 10.7542 11.0758 10.7542 12.3208V15.5625C10.7542 16.3803 10.0912 17.0433 9.27333 17.0433V17.0433C8.45549 17.0433 7.7925 16.3803 7.7925 15.5625V8.9225C7.7925 8.13687 8.42937 7.5 9.215 7.5H9.98708C10.3463 7.5 10.6375 7.7912 10.6375 8.15042V8.7769C10.6375 8.79012 10.6482 8.80083 10.6614 8.80083V8.80083C10.6703 8.80083 10.6784 8.79605 10.6826 8.78824C11.0842 8.042 12.0481 7.25917 13.4842 7.25917C16.485 7.25917 17.04 9.23417 17.04 11.805L17.0394 15.5626ZM4.4475 6.19417C4.22157 6.19427 3.99782 6.14982 3.78909 6.06337C3.58035 5.97691 3.39072 5.85012 3.23103 5.69029C3.07135 5.53045 2.94475 5.34069 2.85849 5.13187C2.77223 4.92305 2.72801 4.69927 2.72833 4.47333C2.7285 4.13315 2.82953 3.80065 3.01867 3.51789C3.2078 3.23513 3.47653 3.01481 3.79089 2.88477C4.10524 2.75474 4.45109 2.72085 4.78471 2.78737C5.11832 2.85391 5.42472 3.01787 5.66514 3.25853C5.90557 3.49919 6.06924 3.80575 6.13545 4.13942C6.20165 4.47311 6.16742 4.81892 6.03708 5.13315C5.90675 5.44737 5.68617 5.7159 5.40322 5.90476C5.12027 6.09362 4.78768 6.19433 4.4475 6.19417ZM5.9325 15.5583C5.9325 16.3785 5.26764 17.0433 4.4475 17.0433V17.0433C3.62736 17.0433 2.9625 16.3785 2.9625 15.5583V8.985C2.9625 8.16486 3.62736 7.5 4.4475 7.5V7.5C5.26764 7.5 5.9325 8.16486 5.9325 8.985V15.5583ZM18.5208 0H1.47583C0.66 0 0 0.645 0 1.44083V18.5592C0 19.3558 0.66 20 1.47583 20H18.5183C19.3333 20 20 19.3558 20 18.5592V1.44083C20 0.645 19.3333 0 18.5183 0H18.5208Z" fill="#A8A8A8"/>
</g>
<defs>
<clipPath id="clip0_57_5">
<rect width="20" height="20" rx="3" fill="white"/>
</clipPath>
</defs>
</svg>
