<svg width="563" height="386" viewBox="0 0 563 386" fill="none" xmlns="http://www.w3.org/2000/svg">
<path d="M36.3416 385.938C23.488 384.449 14.6166 382.368 9.72749 379.696C4.87614 377.238 1.9405 373.117 0.920557 367.332C-0.212709 360.905 -0.299632 351.643 0.659791 339.545C1.58144 327.234 3.13337 313.485 5.3156 298.3C7.71206 283.078 10.6379 267.099 14.0931 250.364C17.5483 233.63 21.224 217.519 25.1201 202.032C29.0162 186.545 32.9248 172.381 36.8457 159.54C40.9431 146.447 44.7629 136.165 48.305 128.692L43.6757 115.592C46.675 115.063 50.9848 115.077 56.6051 115.632C62.2255 116.187 67.9025 117.064 73.6361 118.262C79.584 119.422 84.8009 120.821 89.2869 122.46C93.9494 123.847 96.6271 125.253 97.32 126.677C97.1554 132.007 97.6773 139.978 98.8856 150.589C100.056 160.985 101.68 172.075 103.758 183.858C107.875 207.21 112.774 229.982 118.455 252.175C124.311 274.115 132.6 296.069 143.321 318.035C143.727 300.292 144.366 282.618 145.238 265.013C146.286 247.157 147.593 230.138 149.158 213.958C150.685 197.563 152.42 182.346 154.363 168.308C156.305 154.27 158.336 141.984 160.454 131.449C162.749 120.662 165.12 112.181 167.565 106.007C169.973 99.6181 172.532 95.9639 175.241 95.0444C177.673 95.0573 180.414 95.5681 183.464 96.5767C186.476 97.371 189.437 98.5056 192.348 99.9804C195.258 101.455 197.993 103.182 200.551 105.161C203.108 107.14 205.238 109.194 206.939 111.324C200.574 115.318 194.871 123.061 189.829 134.553C185.001 146.007 180.783 159.673 177.177 175.551C173.747 191.177 170.865 208.031 168.532 226.115C166.412 244.16 164.79 261.897 163.666 279.325C162.719 296.501 162.313 312.367 162.45 326.922C162.801 341.439 163.624 353.002 164.921 361.609C164.997 362.037 165.16 362.34 165.412 362.516C164.808 362.844 164.077 363.083 163.22 363.234C162.577 363.347 161.934 363.461 161.292 363.574C151.437 365.312 142.426 365.575 134.261 364.364C126.347 363.33 120.815 360.771 117.665 356.687C109.993 339.485 103.184 322.793 97.2382 306.611C91.2924 290.43 85.7751 274.173 80.6863 257.84C75.8117 241.47 71.2395 224.936 66.9698 208.238C62.8766 191.288 58.8654 173.55 54.9362 155.025C51.999 162.17 49.2064 171.387 46.5585 182.678C43.8728 193.755 41.483 205.884 39.3893 219.065C37.2956 232.246 35.4223 246.051 33.7694 260.48C32.3308 274.871 31.264 288.865 30.569 302.462C29.874 316.06 29.7084 328.901 30.0722 340.986C30.3982 352.857 31.3167 363.077 32.8277 371.647C33.621 376.146 34.1876 379.359 34.5276 381.287C35.0818 383.178 35.6865 384.728 36.3416 385.938Z" fill="white"/>
<path d="M304.31 176.328C305.795 189.762 305.459 201.639 303.303 211.96C301.109 222.066 297.012 231.404 291.012 239.972C285.189 248.288 277.646 256.245 268.383 263.843C259.119 271.441 248.104 279.126 235.337 286.9C235.564 288.185 235.702 289.596 235.753 291.134C235.979 292.419 236.225 293.812 236.489 295.311C236.98 298.097 237.705 300.951 238.662 303.875C239.619 306.798 240.86 309.451 242.385 311.833C243.909 314.215 245.787 316.093 248.017 317.467C250.209 318.627 252.805 318.942 255.805 318.413C261.589 317.393 267.04 315.107 272.156 311.554C277.273 308.001 281.974 303.969 286.26 299.458C290.721 294.695 294.717 289.794 298.246 284.753C301.952 279.461 305.197 274.692 307.983 270.445C310.465 271.996 312.607 273.496 314.409 274.945C307.035 289.499 298.319 302.081 288.261 312.69C278.38 323.048 268.506 330.311 258.638 334.481C243.553 335.374 231.04 332.058 221.098 324.533C211.333 316.756 205.317 306.441 203.051 293.587C201.502 284.803 201.113 275.704 201.883 266.291C202.829 256.626 204.708 247.237 207.519 238.127C210.507 228.764 214.232 219.824 218.695 211.305C223.371 202.749 228.539 195.101 234.198 188.36C240.071 181.581 246.26 175.961 252.763 171.501C259.48 167.003 266.374 164.131 273.444 162.884C283.525 162.432 293.814 166.913 304.31 176.328ZM284.006 190.843C278.373 192.72 272.79 196.134 267.257 201.086C261.724 206.038 256.739 212.218 252.303 219.627C248.08 226.999 244.475 235.366 241.487 244.729C238.499 254.091 236.588 263.927 235.755 274.235C251.383 262.643 263.779 249.634 272.942 235.206C282.068 220.564 285.756 205.776 284.006 190.843Z" fill="white"/>
<path d="M434.232 153.42C435.717 166.853 435.382 178.73 433.225 189.051C431.031 199.157 426.934 208.495 420.935 217.063C415.112 225.38 407.568 233.337 398.305 240.934C389.041 248.532 378.026 256.217 365.26 263.991C365.486 265.276 365.625 266.688 365.675 268.225C365.902 269.51 366.147 270.903 366.412 272.403C366.903 275.188 367.627 278.042 368.584 280.966C369.542 283.89 370.782 286.542 372.307 288.924C373.831 291.306 375.709 293.184 377.939 294.558C380.132 295.718 382.728 296.033 385.727 295.504C391.511 294.485 396.962 292.198 402.079 288.645C407.196 285.092 411.897 281.06 416.182 276.549C420.643 271.786 424.639 266.885 428.168 261.845C431.874 256.552 435.119 251.783 437.905 247.537C440.387 249.087 442.53 250.587 444.331 252.036C436.957 266.59 428.241 279.172 418.184 289.781C408.302 300.139 398.428 307.402 388.56 311.572C373.476 312.465 360.962 309.149 351.021 301.624C341.255 293.847 335.24 283.532 332.973 270.678C331.424 261.894 331.035 252.796 331.805 243.382C332.751 233.717 334.63 224.329 337.442 215.218C340.43 205.855 344.155 196.915 348.617 188.397C353.293 179.841 358.461 172.192 364.12 165.451C369.994 158.672 376.182 153.052 382.685 148.592C389.403 144.094 396.296 141.222 403.366 139.976C413.447 139.523 423.736 144.005 434.232 153.42ZM413.929 167.934C408.295 169.811 402.712 173.225 397.179 178.177C391.647 183.129 386.662 189.309 382.225 196.718C378.002 204.09 374.397 212.457 371.409 221.82C368.421 231.182 366.51 241.018 365.677 251.326C381.305 239.735 393.701 226.725 402.864 212.297C411.99 197.655 415.678 182.867 413.929 167.934Z" fill="white"/>
<path d="M468.621 263.327C466.958 253.9 466.885 240.328 468.399 222.61C469.876 204.678 472.683 183.64 476.82 159.495C483.718 120.947 490.837 88.6564 498.175 62.6221C505.689 36.3358 513.826 15.462 522.587 0.000844073C525.233 -0.0239963 528.528 0.499436 532.473 1.57114C536.631 2.60507 540.72 3.87212 544.74 5.37229C548.722 6.65823 552.294 8.12684 555.457 9.77811C558.834 11.3916 561.064 12.7655 562.148 13.8998C548.913 36.556 537.978 60.353 529.342 85.2907C520.706 110.228 513.727 138.298 508.405 169.499C503.865 196.366 501.032 220.391 499.908 241.574C498.745 262.543 499.354 279.776 501.734 293.273C502.376 296.915 502.773 299.165 502.924 300.022C503.075 300.879 503.333 301.717 503.699 302.536C500.624 302.636 497.921 302.34 495.589 301.646C493.258 300.953 491.639 299.913 490.732 298.527C490.114 297.531 488.653 296.132 486.347 294.33C484.079 292.742 482.101 291.544 480.412 290.737C478.257 289.792 476.065 286.755 473.835 281.625C471.568 276.282 469.829 270.182 468.621 263.327Z" fill="white"/>
</svg>
