<svg width="22" height="22" viewBox="0 0 22 22" fill="none" xmlns="http://www.w3.org/2000/svg">
<g clip-path="url(#clip0_24_35)">
<mask id="mask0_24_35" style="mask-type:luminance" maskUnits="userSpaceOnUse" x="0" y="0" width="22" height="22">
<path d="M22 0H0V22H22V0Z" fill="white"/>
</mask>
<g mask="url(#mask0_24_35)">
<path d="M6.92098 19.9374C15.2208 19.9374 19.7618 13.0594 19.7618 7.09664C19.7618 6.90328 19.7575 6.70563 19.7489 6.51227C20.6322 5.87344 21.3945 5.08217 22 4.17563C21.1773 4.54165 20.3038 4.7807 19.4094 4.88462C20.3512 4.32011 21.0563 3.43329 21.3942 2.38856C20.5082 2.91362 19.5393 3.284 18.529 3.48383C17.8482 2.76053 16.9483 2.28163 15.9681 2.12115C14.9879 1.96068 13.9821 2.12757 13.1062 2.59603C12.2304 3.06448 11.5333 3.80842 11.1226 4.7128C10.7121 5.6172 10.6108 6.63167 10.8345 7.59938C9.04062 7.50935 7.28561 7.04333 5.68331 6.23153C4.08103 5.41972 2.66722 4.28026 1.53356 2.887C0.957367 3.88041 0.781052 5.05595 1.04044 6.17469C1.29983 7.29343 1.97547 8.27143 2.93004 8.90993C2.21341 8.88718 1.51248 8.69423 0.885156 8.34703V8.40289C0.884515 9.44543 1.24493 10.456 1.90512 11.2628C2.56531 12.0697 3.48454 12.623 4.50656 12.8287C3.84272 13.0103 3.14598 13.0367 2.47027 12.906C2.75866 13.8026 3.31977 14.5867 4.07529 15.1491C4.83081 15.7114 5.74303 16.0238 6.68464 16.0428C5.08605 17.2984 3.11132 17.9796 1.07851 17.9763C0.718013 17.9757 0.357866 17.9537 0 17.9102C2.06512 19.2351 4.4674 19.9387 6.92098 19.9374Z" fill="#A8A8A8"/>
</g>
</g>
<defs>
<clipPath id="clip0_24_35">
<rect width="22" height="22" fill="white"/>
</clipPath>
</defs>
</svg>
