<svg width="132" height="40" viewBox="0 0 132 40" fill="none" xmlns="http://www.w3.org/2000/svg">
<path d="M68.2673 12.7878C68.1919 18.3597 73.5588 21.4692 77.6018 23.3178C81.7558 25.2148 83.151 26.4311 83.1352 28.1272C83.1035 30.7235 79.8215 31.8691 76.7496 31.9137C71.3907 31.9918 68.2752 30.5561 65.7979 29.47L63.8675 37.9468C66.3528 39.0218 70.9547 39.9591 75.727 40C86.9285 40 94.2574 34.8112 94.297 26.7659C94.3406 16.5557 79.2468 15.9903 79.3498 11.4264C79.3855 10.0428 80.7926 8.56612 83.8764 8.19044C85.4024 8.00074 89.6159 7.85568 94.3922 9.92003L96.267 1.71843C93.6985 0.840617 90.3967 0 86.2863 0C75.7428 0 68.3267 5.25944 68.2673 12.7878ZM114.282 0.706715C112.237 0.706715 110.513 1.8263 109.744 3.54473L93.7421 39.3974H104.936L107.163 33.621H120.842L122.134 39.3974H132L123.391 0.706715H114.282ZM115.848 11.1586L119.078 25.6872H110.231L115.848 11.1586ZM54.6955 0.706715L45.8722 39.3974H56.5386L65.3579 0.706715H54.6955ZM38.9159 0.706715L27.8135 27.0411L23.3226 4.64943C22.7954 2.1499 20.7144 0.706715 18.4036 0.706715H0.253678L0 1.83002C3.7259 2.5888 7.95916 3.81253 10.5237 5.12181C12.0933 5.92152 12.5412 6.62079 13.0565 8.52148L21.5627 39.3974L32.8355 39.3974L50.1174 0.706715H38.9159Z" fill="#363636"/>
</svg>
